solid tube
  facet normal   0.000000e+000  -0.000000e+000  -1.000000e+000
    outer loop
      vertex     0.000000e+000   1.000000e+001   0.000000e+000
      vertex     2.000000e+000   8.000000e+000   0.000000e+000
      vertex     0.000000e+000   0.000000e+000   0.000000e+000
    endloop
  endfacet
  facet normal   0.000000e+000   0.000000e+000  -1.000000e+000
    outer loop
      vertex     0.000000e+000   0.000000e+000   0.000000e+000
      vertex     2.000000e+000   8.000000e+000   0.000000e+000
      vertex     2.000000e+000   2.000000e+000   0.000000e+000
    endloop
  endfacet
  facet normal   0.000000e+000   0.000000e+000  -1.000000e+000
    outer loop
      vertex     0.000000e+000   0.000000e+000   0.000000e+000
      vertex     2.000000e+000   2.000000e+000   0.000000e+000
      vertex     2.000000e+001   0.000000e+000   0.000000e+000
    endloop
  endfacet
  facet normal   0.000000e+000   0.000000e+000  -1.000000e+000
    outer loop
      vertex     2.000000e+001   0.000000e+000   0.000000e+000
      vertex     2.000000e+000   2.000000e+000   0.000000e+000
      vertex     1.800000e+001   2.000000e+000   0.000000e+000
    endloop
  endfacet
  facet normal   0.000000e+000   0.000000e+000  -1.000000e+000
    outer loop
      vertex     2.000000e+001   0.000000e+000   0.000000e+000
      vertex     1.800000e+001   2.000000e+000   0.000000e+000
      vertex     2.000000e+001   1.000000e+001   0.000000e+000
    endloop
  endfacet
  facet normal  -0.000000e+000   0.000000e+000  -1.000000e+000
    outer loop
      vertex     2.000000e+001   1.000000e+001   0.000000e+000
      vertex     1.800000e+001   2.000000e+000   0.000000e+000
      vertex     1.800000e+001   8.000000e+000   0.000000e+000
    endloop
  endfacet
  facet normal  -0.000000e+000   0.000000e+000  -1.000000e+000
    outer loop
      vertex     2.000000e+001   1.000000e+001   0.000000e+000
      vertex     1.800000e+001   8.000000e+000   0.000000e+000
      vertex     0.000000e+000   1.000000e+001   0.000000e+000
    endloop
  endfacet
  facet normal  -0.000000e+000  -0.000000e+000  -1.000000e+000
    outer loop
      vertex     0.000000e+000   1.000000e+001   0.000000e+000
      vertex     1.800000e+001   8.000000e+000   0.000000e+000
      vertex     2.000000e+000   8.000000e+000   0.000000e+000
    endloop
  endfacet
  facet normal   0.000000e+000   0.000000e+000   1.000000e+000
    outer loop
      vertex     2.000000e+001   5.000000e+001   1.000000e+002
      vertex     1.800000e+001   5.200000e+001   1.000000e+002
      vertex     0.000000e+000   5.000000e+001   1.000000e+002
    endloop
  endfacet
  facet normal   0.000000e+000  -0.000000e+000   1.000000e+000
    outer loop
      vertex     0.000000e+000   5.000000e+001   1.000000e+002
      vertex     1.800000e+001   5.200000e+001   1.000000e+002
      vertex     2.000000e+000   5.200000e+001   1.000000e+002
    endloop
  endfacet
  facet normal   0.000000e+000  -0.000000e+000   1.000000e+000
    outer loop
      vertex     0.000000e+000   5.000000e+001   1.000000e+002
      vertex     2.000000e+000   5.200000e+001   1.000000e+002
      vertex     0.000000e+000   8.000000e+001   1.000000e+002
    endloop
  endfacet
  facet normal  -0.000000e+000   0.000000e+000   1.000000e+000
    outer loop
      vertex     0.000000e+000   8.000000e+001   1.000000e+002
      vertex     2.000000e+000   5.200000e+001   1.000000e+002
      vertex     2.000000e+000   7.800000e+001   1.000000e+002
    endloop
  endfacet
  facet normal  -0.000000e+000   0.000000e+000   1.000000e+000
    outer loop
      vertex     0.000000e+000   8.000000e+001   1.000000e+002
      vertex     2.000000e+000   7.800000e+001   1.000000e+002
      vertex     2.000000e+001   8.000000e+001   1.000000e+002
    endloop
  endfacet
  facet normal  -0.000000e+000   0.000000e+000   1.000000e+000
    outer loop
      vertex     2.000000e+001   8.000000e+001   1.000000e+002
      vertex     2.000000e+000   7.800000e+001   1.000000e+002
      vertex     1.800000e+001   7.800000e+001   1.000000e+002
    endloop
  endfacet
  facet normal   0.000000e+000   0.000000e+000   1.000000e+000
    outer loop
      vertex     2.000000e+001   8.000000e+001   1.000000e+002
      vertex     1.800000e+001   7.800000e+001   1.000000e+002
      vertex     2.000000e+001   5.000000e+001   1.000000e+002
    endloop
  endfacet
  facet normal   0.000000e+000   0.000000e+000   1.000000e+000
    outer loop
      vertex     2.000000e+001   5.000000e+001   1.000000e+002
      vertex     1.800000e+001   7.800000e+001   1.000000e+002
      vertex     1.800000e+001   5.200000e+001   1.000000e+002
    endloop
  endfacet
  facet normal  -0.000000e+000  -1.000000e+000   0.000000e+000
    outer loop
      vertex     1.800000e+001   8.000000e+000   0.000000e+000
      vertex     1.800000e+001   8.000000e+000   7.200000e+001
      vertex     2.000000e+000   8.000000e+000   0.000000e+000
    endloop
  endfacet
  facet normal   0.000000e+000  -1.000000e+000   0.000000e+000
    outer loop
      vertex     2.000000e+000   8.000000e+000   0.000000e+000
      vertex     1.800000e+001   8.000000e+000   7.200000e+001
      vertex     2.000000e+000   8.000000e+000   7.200000e+001
    endloop
  endfacet
  facet normal  -0.000000e+000  -1.000000e+000   0.000000e+000
    outer loop
      vertex     1.800000e+001   7.800000e+001   2.200000e+001
      vertex     1.800000e+001   7.800000e+001   1.000000e+002
      vertex     2.000000e+000   7.800000e+001   2.200000e+001
    endloop
  endfacet
  facet normal   0.000000e+000  -1.000000e+000   0.000000e+000
    outer loop
      vertex     2.000000e+000   7.800000e+001   2.200000e+001
      vertex     1.800000e+001   7.800000e+001   1.000000e+002
      vertex     2.000000e+000   7.800000e+001   1.000000e+002
    endloop
  endfacet
  facet normal   0.000000e+000   1.000000e+000  -0.000000e+000
    outer loop
      vertex     1.800000e+001   5.200000e+001   3.800000e+001
      vertex     2.000000e+000   5.200000e+001   3.800000e+001
      vertex     1.800000e+001   5.200000e+001   1.000000e+002
    endloop
  endfacet
  facet normal   0.000000e+000   1.000000e+000  -0.000000e+000
    outer loop
      vertex     1.800000e+001   5.200000e+001   1.000000e+002
      vertex     2.000000e+000   5.200000e+001   3.800000e+001
      vertex     2.000000e+000   5.200000e+001   1.000000e+002
    endloop
  endfacet
  facet normal   0.000000e+000   1.000000e+000  -0.000000e+000
    outer loop
      vertex     1.800000e+001   2.000000e+000   0.000000e+000
      vertex     2.000000e+000   2.000000e+000   0.000000e+000
      vertex     1.800000e+001   2.000000e+000   7.800000e+001
    endloop
  endfacet
  facet normal   0.000000e+000   1.000000e+000  -0.000000e+000
    outer loop
      vertex     1.800000e+001   2.000000e+000   7.800000e+001
      vertex     2.000000e+000   2.000000e+000   0.000000e+000
      vertex     2.000000e+000   2.000000e+000   7.800000e+001
    endloop
  endfacet
  facet normal   1.000000e+000   0.000000e+000  -0.000000e+000
    outer loop
      vertex     2.000000e+000   2.000000e+000   0.000000e+000
      vertex     2.000000e+000   8.000000e+000   0.000000e+000
      vertex     2.000000e+000   2.000000e+000   7.800000e+001
    endloop
  endfacet
  facet normal   1.000000e+000  -0.000000e+000   0.000000e+000
    outer loop
      vertex     2.000000e+000   2.000000e+000   7.800000e+001
      vertex     2.000000e+000   8.000000e+000   0.000000e+000
      vertex     2.000000e+000   8.000000e+000   7.200000e+001
    endloop
  endfacet
  facet normal   1.000000e+000  -0.000000e+000   0.000000e+000
    outer loop
      vertex     2.000000e+000   2.000000e+000   7.800000e+001
      vertex     2.000000e+000   8.000000e+000   7.200000e+001
      vertex     2.000000e+000   3.800000e+001   7.800000e+001
    endloop
  endfacet
  facet normal   1.000000e+000  -0.000000e+000   0.000000e+000
    outer loop
      vertex     2.000000e+000   3.800000e+001   7.800000e+001
      vertex     2.000000e+000   8.000000e+000   7.200000e+001
      vertex     2.000000e+000   2.200000e+001   7.200000e+001
    endloop
  endfacet
  facet normal   1.000000e+000   0.000000e+000   0.000000e+000
    outer loop
      vertex     2.000000e+000   3.800000e+001   7.800000e+001
      vertex     2.000000e+000   2.200000e+001   7.200000e+001
      vertex     2.000000e+000   3.800000e+001   3.800000e+001
    endloop
  endfacet
  facet normal   1.000000e+000   0.000000e+000   0.000000e+000
    outer loop
      vertex     2.000000e+000   3.800000e+001   3.800000e+001
      vertex     2.000000e+000   2.200000e+001   7.200000e+001
      vertex     2.000000e+000   2.200000e+001   2.200000e+001
    endloop
  endfacet
  facet normal   1.000000e+000  -0.000000e+000   0.000000e+000
    outer loop
      vertex     2.000000e+000   3.800000e+001   3.800000e+001
      vertex     2.000000e+000   2.200000e+001   2.200000e+001
      vertex     2.000000e+000   5.200000e+001   3.800000e+001
    endloop
  endfacet
  facet normal   1.000000e+000  -0.000000e+000   0.000000e+000
    outer loop
      vertex     2.000000e+000   5.200000e+001   3.800000e+001
      vertex     2.000000e+000   2.200000e+001   2.200000e+001
      vertex     2.000000e+000   7.800000e+001   2.200000e+001
    endloop
  endfacet
  facet normal   1.000000e+000  -0.000000e+000  -0.000000e+000
    outer loop
      vertex     2.000000e+000   5.200000e+001   3.800000e+001
      vertex     2.000000e+000   7.800000e+001   2.200000e+001
      vertex     2.000000e+000   5.200000e+001   1.000000e+002
    endloop
  endfacet
  facet normal   1.000000e+000  -0.000000e+000   0.000000e+000
    outer loop
      vertex     2.000000e+000   5.200000e+001   1.000000e+002
      vertex     2.000000e+000   7.800000e+001   2.200000e+001
      vertex     2.000000e+000   7.800000e+001   1.000000e+002
    endloop
  endfacet
  facet normal  -1.000000e+000  -0.000000e+000   0.000000e+000
    outer loop
      vertex     1.800000e+001   3.800000e+001   7.800000e+001
      vertex     1.800000e+001   8.000000e+000   7.200000e+001
      vertex     1.800000e+001   2.000000e+000   7.800000e+001
    endloop
  endfacet
  facet normal  -1.000000e+000   0.000000e+000   0.000000e+000
    outer loop
      vertex     1.800000e+001   2.000000e+000   7.800000e+001
      vertex     1.800000e+001   8.000000e+000   7.200000e+001
      vertex     1.800000e+001   8.000000e+000   0.000000e+000
    endloop
  endfacet
  facet normal  -1.000000e+000  -0.000000e+000  -0.000000e+000
    outer loop
      vertex     1.800000e+001   2.000000e+000   7.800000e+001
      vertex     1.800000e+001   8.000000e+000   0.000000e+000
      vertex     1.800000e+001   2.000000e+000   0.000000e+000
    endloop
  endfacet
  facet normal  -1.000000e+000   0.000000e+000  -0.000000e+000
    outer loop
      vertex     1.800000e+001   8.000000e+000   7.200000e+001
      vertex     1.800000e+001   3.800000e+001   7.800000e+001
      vertex     1.800000e+001   2.200000e+001   7.200000e+001
    endloop
  endfacet
  facet normal  -1.000000e+000   0.000000e+000   0.000000e+000
    outer loop
      vertex     1.800000e+001   2.200000e+001   7.200000e+001
      vertex     1.800000e+001   3.800000e+001   7.800000e+001
      vertex     1.800000e+001   3.800000e+001   3.800000e+001
    endloop
  endfacet
  facet normal  -1.000000e+000   0.000000e+000  -0.000000e+000
    outer loop
      vertex     1.800000e+001   2.200000e+001   7.200000e+001
      vertex     1.800000e+001   3.800000e+001   3.800000e+001
      vertex     1.800000e+001   2.200000e+001   2.200000e+001
    endloop
  endfacet
  facet normal  -1.000000e+000   0.000000e+000   0.000000e+000
    outer loop
      vertex     1.800000e+001   2.200000e+001   2.200000e+001
      vertex     1.800000e+001   3.800000e+001   3.800000e+001
      vertex     1.800000e+001   5.200000e+001   3.800000e+001
    endloop
  endfacet
  facet normal  -1.000000e+000   0.000000e+000   0.000000e+000
    outer loop
      vertex     1.800000e+001   2.200000e+001   2.200000e+001
      vertex     1.800000e+001   5.200000e+001   3.800000e+001
      vertex     1.800000e+001   7.800000e+001   2.200000e+001
    endloop
  endfacet
  facet normal  -1.000000e+000   0.000000e+000   0.000000e+000
    outer loop
      vertex     1.800000e+001   7.800000e+001   2.200000e+001
      vertex     1.800000e+001   5.200000e+001   3.800000e+001
      vertex     1.800000e+001   5.200000e+001   1.000000e+002
    endloop
  endfacet
  facet normal  -1.000000e+000   0.000000e+000   0.000000e+000
    outer loop
      vertex     1.800000e+001   7.800000e+001   2.200000e+001
      vertex     1.800000e+001   5.200000e+001   1.000000e+002
      vertex     1.800000e+001   7.800000e+001   1.000000e+002
    endloop
  endfacet
  facet normal   0.000000e+000  -0.000000e+000   1.000000e+000
    outer loop
      vertex     2.000000e+000   8.000000e+000   7.200000e+001
      vertex     1.800000e+001   8.000000e+000   7.200000e+001
      vertex     2.000000e+000   2.200000e+001   7.200000e+001
    endloop
  endfacet
  facet normal  -0.000000e+000   0.000000e+000   1.000000e+000
    outer loop
      vertex     2.000000e+000   2.200000e+001   7.200000e+001
      vertex     1.800000e+001   8.000000e+000   7.200000e+001
      vertex     1.800000e+001   2.200000e+001   7.200000e+001
    endloop
  endfacet
  facet normal   0.000000e+000   1.000000e+000   0.000000e+000
    outer loop
      vertex     1.800000e+001   2.200000e+001   7.200000e+001
      vertex     1.800000e+001   2.200000e+001   2.200000e+001
      vertex     2.000000e+000   2.200000e+001   7.200000e+001
    endloop
  endfacet
  facet normal   0.000000e+000   1.000000e+000   0.000000e+000
    outer loop
      vertex     2.000000e+000   2.200000e+001   7.200000e+001
      vertex     1.800000e+001   2.200000e+001   2.200000e+001
      vertex     2.000000e+000   2.200000e+001   2.200000e+001
    endloop
  endfacet
  facet normal   0.000000e+000  -0.000000e+000   1.000000e+000
    outer loop
      vertex     1.800000e+001   2.200000e+001   2.200000e+001
      vertex     1.800000e+001   7.800000e+001   2.200000e+001
      vertex     2.000000e+000   2.200000e+001   2.200000e+001
    endloop
  endfacet
  facet normal   0.000000e+000  -0.000000e+000   1.000000e+000
    outer loop
      vertex     2.000000e+000   2.200000e+001   2.200000e+001
      vertex     1.800000e+001   7.800000e+001   2.200000e+001
      vertex     2.000000e+000   7.800000e+001   2.200000e+001
    endloop
  endfacet
  facet normal   0.000000e+000   0.000000e+000  -1.000000e+000
    outer loop
      vertex     2.000000e+000   3.800000e+001   3.800000e+001
      vertex     2.000000e+000   5.200000e+001   3.800000e+001
      vertex     1.800000e+001   3.800000e+001   3.800000e+001
    endloop
  endfacet
  facet normal   0.000000e+000   0.000000e+000  -1.000000e+000
    outer loop
      vertex     1.800000e+001   3.800000e+001   3.800000e+001
      vertex     2.000000e+000   5.200000e+001   3.800000e+001
      vertex     1.800000e+001   5.200000e+001   3.800000e+001
    endloop
  endfacet
  facet normal  -0.000000e+000  -1.000000e+000  -0.000000e+000
    outer loop
      vertex     1.800000e+001   3.800000e+001   7.800000e+001
      vertex     2.000000e+000   3.800000e+001   7.800000e+001
      vertex     1.800000e+001   3.800000e+001   3.800000e+001
    endloop
  endfacet
  facet normal  -0.000000e+000  -1.000000e+000  -0.000000e+000
    outer loop
      vertex     1.800000e+001   3.800000e+001   3.800000e+001
      vertex     2.000000e+000   3.800000e+001   7.800000e+001
      vertex     2.000000e+000   3.800000e+001   3.800000e+001
    endloop
  endfacet
  facet normal   0.000000e+000   0.000000e+000  -1.000000e+000
    outer loop
      vertex     1.800000e+001   2.000000e+000   7.800000e+001
      vertex     2.000000e+000   2.000000e+000   7.800000e+001
      vertex     1.800000e+001   3.800000e+001   7.800000e+001
    endloop
  endfacet
  facet normal  -0.000000e+000   0.000000e+000  -1.000000e+000
    outer loop
      vertex     1.800000e+001   3.800000e+001   7.800000e+001
      vertex     2.000000e+000   2.000000e+000   7.800000e+001
      vertex     2.000000e+000   3.800000e+001   7.800000e+001
    endloop
  endfacet
  facet normal   1.000000e+000   0.000000e+000  -0.000000e+000
    outer loop
      vertex     2.000000e+001   2.000000e+001   2.000000e+001
      vertex     2.000000e+001   8.000000e+001   2.000000e+001
      vertex     2.000000e+001   5.000000e+001   4.000000e+001
    endloop
  endfacet
  facet normal   1.000000e+000   0.000000e+000  -0.000000e+000
    outer loop
      vertex     2.000000e+001   2.000000e+001   2.000000e+001
      vertex     2.000000e+001   5.000000e+001   4.000000e+001
      vertex     2.000000e+001   4.000000e+001   4.000000e+001
    endloop
  endfacet
  facet normal   1.000000e+000   0.000000e+000   0.000000e+000
    outer loop
      vertex     2.000000e+001   2.000000e+001   2.000000e+001
      vertex     2.000000e+001   4.000000e+001   4.000000e+001
      vertex     2.000000e+001   4.000000e+001   8.000000e+001
    endloop
  endfacet
  facet normal   1.000000e+000   0.000000e+000  -0.000000e+000
    outer loop
      vertex     2.000000e+001   2.000000e+001   2.000000e+001
      vertex     2.000000e+001   4.000000e+001   8.000000e+001
      vertex     2.000000e+001   2.000000e+001   7.000000e+001
    endloop
  endfacet
  facet normal   1.000000e+000   0.000000e+000  -0.000000e+000
    outer loop
      vertex     2.000000e+001   0.000000e+000   0.000000e+000
      vertex     2.000000e+001   1.000000e+001   0.000000e+000
      vertex     2.000000e+001   0.000000e+000   8.000000e+001
    endloop
  endfacet
  facet normal   1.000000e+000  -0.000000e+000   0.000000e+000
    outer loop
      vertex     2.000000e+001   0.000000e+000   8.000000e+001
      vertex     2.000000e+001   1.000000e+001   0.000000e+000
      vertex     2.000000e+001   1.000000e+001   7.000000e+001
    endloop
  endfacet
  facet normal   1.000000e+000  -0.000000e+000   0.000000e+000
    outer loop
      vertex     2.000000e+001   0.000000e+000   8.000000e+001
      vertex     2.000000e+001   1.000000e+001   7.000000e+001
      vertex     2.000000e+001   4.000000e+001   8.000000e+001
    endloop
  endfacet
  facet normal   1.000000e+000  -0.000000e+000   0.000000e+000
    outer loop
      vertex     2.000000e+001   4.000000e+001   8.000000e+001
      vertex     2.000000e+001   1.000000e+001   7.000000e+001
      vertex     2.000000e+001   2.000000e+001   7.000000e+001
    endloop
  endfacet
  facet normal   1.000000e+000  -0.000000e+000  -0.000000e+000
    outer loop
      vertex     2.000000e+001   5.000000e+001   4.000000e+001
      vertex     2.000000e+001   8.000000e+001   2.000000e+001
      vertex     2.000000e+001   5.000000e+001   1.000000e+002
    endloop
  endfacet
  facet normal   1.000000e+000  -0.000000e+000   0.000000e+000
    outer loop
      vertex     2.000000e+001   5.000000e+001   1.000000e+002
      vertex     2.000000e+001   8.000000e+001   2.000000e+001
      vertex     2.000000e+001   8.000000e+001   1.000000e+002
    endloop
  endfacet
  facet normal  -1.000000e+000   0.000000e+000   0.000000e+000
    outer loop
      vertex     0.000000e+000   2.000000e+001   2.000000e+001
      vertex     0.000000e+000   2.000000e+001   7.000000e+001
      vertex     0.000000e+000   4.000000e+001   8.000000e+001
    endloop
  endfacet
  facet normal  -1.000000e+000   0.000000e+000   0.000000e+000
    outer loop
      vertex     0.000000e+000   2.000000e+001   2.000000e+001
      vertex     0.000000e+000   4.000000e+001   8.000000e+001
      vertex     0.000000e+000   4.000000e+001   4.000000e+001
    endloop
  endfacet
  facet normal  -1.000000e+000   0.000000e+000   0.000000e+000
    outer loop
      vertex     0.000000e+000   2.000000e+001   2.000000e+001
      vertex     0.000000e+000   4.000000e+001   4.000000e+001
      vertex     0.000000e+000   5.000000e+001   4.000000e+001
    endloop
  endfacet
  facet normal  -1.000000e+000   0.000000e+000   0.000000e+000
    outer loop
      vertex     0.000000e+000   2.000000e+001   2.000000e+001
      vertex     0.000000e+000   5.000000e+001   4.000000e+001
      vertex     0.000000e+000   8.000000e+001   2.000000e+001
    endloop
  endfacet
  facet normal  -1.000000e+000   0.000000e+000   0.000000e+000
    outer loop
      vertex     0.000000e+000   0.000000e+000   0.000000e+000
      vertex     0.000000e+000   0.000000e+000   8.000000e+001
      vertex     0.000000e+000   1.000000e+001   0.000000e+000
    endloop
  endfacet
  facet normal  -1.000000e+000   0.000000e+000   0.000000e+000
    outer loop
      vertex     0.000000e+000   1.000000e+001   0.000000e+000
      vertex     0.000000e+000   0.000000e+000   8.000000e+001
      vertex     0.000000e+000   1.000000e+001   7.000000e+001
    endloop
  endfacet
  facet normal  -1.000000e+000   0.000000e+000  -0.000000e+000
    outer loop
      vertex     0.000000e+000   0.000000e+000   8.000000e+001
      vertex     0.000000e+000   4.000000e+001   8.000000e+001
      vertex     0.000000e+000   1.000000e+001   7.000000e+001
    endloop
  endfacet
  facet normal  -1.000000e+000   0.000000e+000  -0.000000e+000
    outer loop
      vertex     0.000000e+000   1.000000e+001   7.000000e+001
      vertex     0.000000e+000   4.000000e+001   8.000000e+001
      vertex     0.000000e+000   2.000000e+001   7.000000e+001
    endloop
  endfacet
  facet normal  -1.000000e+000   0.000000e+000   0.000000e+000
    outer loop
      vertex     0.000000e+000   5.000000e+001   4.000000e+001
      vertex     0.000000e+000   5.000000e+001   1.000000e+002
      vertex     0.000000e+000   8.000000e+001   2.000000e+001
    endloop
  endfacet
  facet normal  -1.000000e+000   0.000000e+000   0.000000e+000
    outer loop
      vertex     0.000000e+000   8.000000e+001   2.000000e+001
      vertex     0.000000e+000   5.000000e+001   1.000000e+002
      vertex     0.000000e+000   8.000000e+001   1.000000e+002
    endloop
  endfacet
  facet normal  -0.000000e+000  -1.000000e+000   0.000000e+000
    outer loop
      vertex     2.000000e+001   0.000000e+000   0.000000e+000
      vertex     2.000000e+001   0.000000e+000   8.000000e+001
      vertex     0.000000e+000   0.000000e+000   0.000000e+000
    endloop
  endfacet
  facet normal   0.000000e+000  -1.000000e+000   0.000000e+000
    outer loop
      vertex     0.000000e+000   0.000000e+000   0.000000e+000
      vertex     2.000000e+001   0.000000e+000   8.000000e+001
      vertex     0.000000e+000   0.000000e+000   8.000000e+001
    endloop
  endfacet
  facet normal   0.000000e+000  -0.000000e+000   1.000000e+000
    outer loop
      vertex     2.000000e+001   0.000000e+000   8.000000e+001
      vertex     2.000000e+001   4.000000e+001   8.000000e+001
      vertex     0.000000e+000   0.000000e+000   8.000000e+001
    endloop
  endfacet
  facet normal   0.000000e+000  -0.000000e+000   1.000000e+000
    outer loop
      vertex     0.000000e+000   0.000000e+000   8.000000e+001
      vertex     2.000000e+001   4.000000e+001   8.000000e+001
      vertex     0.000000e+000   4.000000e+001   8.000000e+001
    endloop
  endfacet
  facet normal   0.000000e+000   1.000000e+000   0.000000e+000
    outer loop
      vertex     2.000000e+001   4.000000e+001   8.000000e+001
      vertex     2.000000e+001   4.000000e+001   4.000000e+001
      vertex     0.000000e+000   4.000000e+001   8.000000e+001
    endloop
  endfacet
  facet normal   0.000000e+000   1.000000e+000   0.000000e+000
    outer loop
      vertex     0.000000e+000   4.000000e+001   8.000000e+001
      vertex     2.000000e+001   4.000000e+001   4.000000e+001
      vertex     0.000000e+000   4.000000e+001   4.000000e+001
    endloop
  endfacet
  facet normal   0.000000e+000  -0.000000e+000   1.000000e+000
    outer loop
      vertex     0.000000e+000   4.000000e+001   4.000000e+001
      vertex     2.000000e+001   4.000000e+001   4.000000e+001
      vertex     0.000000e+000   5.000000e+001   4.000000e+001
    endloop
  endfacet
  facet normal  -0.000000e+000   0.000000e+000   1.000000e+000
    outer loop
      vertex     0.000000e+000   5.000000e+001   4.000000e+001
      vertex     2.000000e+001   4.000000e+001   4.000000e+001
      vertex     2.000000e+001   5.000000e+001   4.000000e+001
    endloop
  endfacet
  facet normal  -0.000000e+000  -1.000000e+000   0.000000e+000
    outer loop
      vertex     2.000000e+001   5.000000e+001   4.000000e+001
      vertex     2.000000e+001   5.000000e+001   1.000000e+002
      vertex     0.000000e+000   5.000000e+001   4.000000e+001
    endloop
  endfacet
  facet normal   0.000000e+000  -1.000000e+000   0.000000e+000
    outer loop
      vertex     0.000000e+000   5.000000e+001   4.000000e+001
      vertex     2.000000e+001   5.000000e+001   1.000000e+002
      vertex     0.000000e+000   5.000000e+001   1.000000e+002
    endloop
  endfacet
  facet normal   0.000000e+000   1.000000e+000  -0.000000e+000
    outer loop
      vertex     2.000000e+001   8.000000e+001   2.000000e+001
      vertex     0.000000e+000   8.000000e+001   2.000000e+001
      vertex     2.000000e+001   8.000000e+001   1.000000e+002
    endloop
  endfacet
  facet normal   0.000000e+000   1.000000e+000  -0.000000e+000
    outer loop
      vertex     2.000000e+001   8.000000e+001   1.000000e+002
      vertex     0.000000e+000   8.000000e+001   2.000000e+001
      vertex     0.000000e+000   8.000000e+001   1.000000e+002
    endloop
  endfacet
  facet normal   0.000000e+000   0.000000e+000  -1.000000e+000
    outer loop
      vertex     2.000000e+001   2.000000e+001   2.000000e+001
      vertex     0.000000e+000   2.000000e+001   2.000000e+001
      vertex     2.000000e+001   8.000000e+001   2.000000e+001
    endloop
  endfacet
  facet normal  -0.000000e+000   0.000000e+000  -1.000000e+000
    outer loop
      vertex     2.000000e+001   8.000000e+001   2.000000e+001
      vertex     0.000000e+000   2.000000e+001   2.000000e+001
      vertex     0.000000e+000   8.000000e+001   2.000000e+001
    endloop
  endfacet
  facet normal  -0.000000e+000  -1.000000e+000  -0.000000e+000
    outer loop
      vertex     2.000000e+001   2.000000e+001   7.000000e+001
      vertex     0.000000e+000   2.000000e+001   7.000000e+001
      vertex     2.000000e+001   2.000000e+001   2.000000e+001
    endloop
  endfacet
  facet normal  -0.000000e+000  -1.000000e+000  -0.000000e+000
    outer loop
      vertex     2.000000e+001   2.000000e+001   2.000000e+001
      vertex     0.000000e+000   2.000000e+001   7.000000e+001
      vertex     0.000000e+000   2.000000e+001   2.000000e+001
    endloop
  endfacet
  facet normal   0.000000e+000   0.000000e+000  -1.000000e+000
    outer loop
      vertex     0.000000e+000   1.000000e+001   7.000000e+001
      vertex     0.000000e+000   2.000000e+001   7.000000e+001
      vertex     2.000000e+001   1.000000e+001   7.000000e+001
    endloop
  endfacet
  facet normal   0.000000e+000   0.000000e+000  -1.000000e+000
    outer loop
      vertex     2.000000e+001   1.000000e+001   7.000000e+001
      vertex     0.000000e+000   2.000000e+001   7.000000e+001
      vertex     2.000000e+001   2.000000e+001   7.000000e+001
    endloop
  endfacet
  facet normal   0.000000e+000   1.000000e+000  -0.000000e+000
    outer loop
      vertex     2.000000e+001   1.000000e+001   0.000000e+000
      vertex     0.000000e+000   1.000000e+001   0.000000e+000
      vertex     2.000000e+001   1.000000e+001   7.000000e+001
    endloop
  endfacet
  facet normal   0.000000e+000   1.000000e+000  -0.000000e+000
    outer loop
      vertex     2.000000e+001   1.000000e+001   7.000000e+001
      vertex     0.000000e+000   1.000000e+001   0.000000e+000
      vertex     0.000000e+000   1.000000e+001   7.000000e+001
    endloop
  endfacet
endsolid tube
